<?xml version="1.0" standalone="no"?>
<!DOCTYPE svg PUBLIC "-//W3C//DTD SVG 20010904//EN"
 "http://www.w3.org/TR/2001/REC-SVG-20010904/DTD/svg10.dtd">
<svg version="1.0" xmlns="http://www.w3.org/2000/svg"
 width="16.000000pt" height="16.000000pt" viewBox="0 0 16.000000 16.000000"
 preserveAspectRatio="xMidYMid meet">

<g transform="translate(0.000000,16.000000) scale(0.100000,-0.100000)"
fill="#000000" stroke="none">
<path d="M43 148 c-55 -27 -50 -114 8 -138 89 -37 151 99 63 139 -30 13 -42
13 -71 -1z m3 -23 c-31 -29 -33 -58 -6 -85 25 -25 55 -25 80 0 20 20 29 66 10
55 -6 -4 -8 -11 -5 -16 3 -5 -1 -6 -9 -3 -10 4 -16 1 -16 -7 0 -7 -3 -9 -7 -6
-3 4 -15 0 -25 -10 -17 -15 -18 -15 -16 10 1 15 7 27 13 27 5 0 3 5 -5 11 -11
8 -4 9 28 6 47 -6 53 3 20 27 l-23 17 22 -11 c25 -11 43 -39 43 -65 0 -23 -45
-65 -70 -65 -27 0 -70 43 -70 70 0 19 40 70 56 70 4 0 -5 -11 -20 -25z"/>
<path d="M85 90 c-3 -5 -2 -10 4 -10 5 0 13 5 16 10 3 6 2 10 -4 10 -5 0 -13
-4 -16 -10z"/>
</g>
</svg>
